<svg width="30" height="38" viewBox="0 0 30 38" fill="none" xmlns="http://www.w3.org/2000/svg">
<path fill-rule="evenodd" clip-rule="evenodd" d="M0.293457 22.2278C0.293457 30.3759 6.96012 37.0426 15.1083 37.0426C23.2564 37.0426 29.9231 30.3759 29.9231 22.2278H26.2194C26.2194 28.3389 21.2194 33.3389 15.1083 33.3389C8.99716 33.3389 3.99716 28.3389 3.99716 22.2278C3.99716 16.1167 8.99716 11.1167 15.1083 11.1167V18.5241L24.3675 9.26484L15.1083 0.00557709V7.41298C6.96012 7.41298 0.293457 14.0796 0.293457 22.2278ZM10.7565 23.147H11.592C11.9899 23.147 12.2846 23.0475 12.4763 22.8486C12.668 22.6497 12.7639 22.3856 12.7639 22.0565C12.7639 21.7382 12.6689 21.4904 12.4791 21.3132C12.2892 21.136 12.0278 21.0474 11.6951 21.0474C11.3949 21.0474 11.1435 21.1297 10.941 21.2942C10.7384 21.4588 10.6372 21.6731 10.6372 21.9371H9.06923C9.06923 21.5248 9.18044 21.155 9.40288 20.8276C9.62532 20.5003 9.93637 20.2444 10.336 20.06C10.7357 19.8755 11.1761 19.7833 11.6571 19.7833C12.4926 19.7833 13.1473 19.9831 13.6211 20.3828C14.0949 20.7824 14.3318 21.3331 14.3318 22.0348C14.3318 22.3965 14.2215 22.7292 14.0009 23.033C13.7802 23.3369 13.4909 23.5702 13.1328 23.7329C13.5777 23.8921 13.9095 24.1308 14.1284 24.4491C14.3472 24.7673 14.4566 25.1435 14.4566 25.5775C14.4566 26.2792 14.2007 26.8416 13.6889 27.2648C13.1771 27.688 12.4999 27.8996 11.6571 27.8996C10.8686 27.8996 10.2239 27.6916 9.72298 27.2757C9.22204 26.8597 8.97157 26.31 8.97157 25.6264H10.5395C10.5395 25.9229 10.6507 26.1653 10.8732 26.3534C11.0956 26.5414 11.3696 26.6355 11.6951 26.6355C12.0676 26.6355 12.3597 26.5369 12.5713 26.3398C12.7829 26.1427 12.8887 25.8814 12.8887 25.5558C12.8887 24.7673 12.4546 24.3731 11.5866 24.3731H10.7565V23.147ZM20.8587 24.525C20.8587 25.6173 20.6327 26.4528 20.1806 27.0315C19.7285 27.6102 19.0666 27.8996 18.1949 27.8996C17.3341 27.8996 16.6758 27.6157 16.2201 27.0478C15.7643 26.4799 15.531 25.6662 15.5202 24.6064V23.1524C15.5202 22.0492 15.749 21.2119 16.2065 20.6405C16.664 20.069 17.3232 19.7833 18.184 19.7833C19.0449 19.7833 19.7031 20.0663 20.1589 20.6323C20.6146 21.1984 20.8479 22.0113 20.8587 23.071V24.525ZM19.2906 22.9428C19.2906 22.2881 19.2011 21.8116 19.0221 21.5132C18.843 21.2148 18.5636 21.0656 18.1839 21.0656C17.8149 21.0656 17.5428 21.2076 17.3673 21.4915C17.1919 21.7754 17.0988 22.2194 17.0879 22.8234V24.744C17.0879 25.3878 17.1756 25.8661 17.3511 26.179C17.5265 26.4919 17.8077 26.6483 18.1947 26.6483C18.5781 26.6483 18.8548 26.4982 19.0248 26.198C19.1948 25.8978 19.2834 25.4384 19.2906 24.8199V22.9428Z" fill="#6E7191"/>
</svg>
